<svg width="32" height="32" viewBox="0 0 32 32" fill="none" xmlns="http://www.w3.org/2000/svg">
  <!-- WhatsApp Green Circle Background -->
  <circle cx="16" cy="16" r="16" fill="#25D366"/>
  
  <!-- Chat Bubble -->
  <path d="M16 6C10.477 6 6 10.477 6 16C6 17.89 6.525 19.66 7.438 21.166L6.5 25.5L11.033 24.596C12.486 25.365 14.19 25.8 16 25.8C21.523 25.8 26 21.323 26 15.8C26 10.277 21.523 6 16 6Z" fill="white"/>
  
  <!-- Phone Icon -->
  <path d="M19.5 18.5C19.3 18.4 18.1 17.8 17.9 17.7C17.7 17.6 17.5 17.6 17.4 17.8C17.2 18 16.8 18.5 16.6 18.7C16.5 18.8 16.3 18.8 16.1 18.7C15.9 18.6 15.3 18.4 14.6 17.8C14 17.3 13.6 16.7 13.5 16.5C13.4 16.3 13.5 16.2 13.6 16.1C13.7 16 13.8 15.8 13.9 15.7C14 15.6 14 15.5 14.1 15.4C14.2 15.3 14.1 15.2 14.1 15.1C14.1 15 13.7 13.9 13.5 13.4C13.3 13 13.1 13 13 13H12.7C12.5 13 12.3 13.1 12.1 13.3C11.9 13.5 11.4 14 11.4 15.1C11.4 16.2 12.2 17.3 12.3 17.4C12.4 17.6 13.6 19.4 15.4 20.2C17.2 21 17.2 20.6 17.7 20.5C18.2 20.5 19.1 20.1 19.3 19.6C19.5 19.2 19.5 18.8 19.5 18.7C19.4 18.7 19.3 18.6 19.5 18.5Z" fill="#25D366"/>
</svg>